<svg width="512" height="512" viewBox="0 0 512 512" fill="none" xmlns="http://www.w3.org/2000/svg">
  <defs>
    <linearGradient id="bgGradient" x1="0%" y1="0%" x2="100%" y2="100%">
      <stop offset="0%" style="stop-color:#6366f1;stop-opacity:1" />
      <stop offset="100%" style="stop-color:#4f46e5;stop-opacity:1" />
    </linearGradient>
    <linearGradient id="iconGradient" x1="0%" y1="0%" x2="100%" y2="100%">
      <stop offset="0%" style="stop-color:#10b981;stop-opacity:1" />
      <stop offset="100%" style="stop-color:#059669;stop-opacity:1" />
    </linearGradient>
  </defs>
  
  <rect width="512" height="512" rx="120" ry="120" fill="url(#bgGradient)"/>
  
  <g transform="translate(128, 128)">
    <circle cx="128" cy="128" r="25" fill="white" opacity="0.9"/>
    
    <g transform="translate(128, 128)">
      <polygon points="-60,-35 -30,-60 30,-60 60,-35 60,35 30,60 -30,60 -60,35" 
               fill="none" stroke="white" stroke-width="8" opacity="0.6"/>
      
      <polygon points="-40,-23 -20,-40 20,-40 40,-23 40,23 20,40 -20,40 -40,23" 
               fill="none" stroke="white" stroke-width="6" opacity="0.8"/>
      
      <circle cx="-60" cy="-35" r="8" fill="url(#iconGradient)"/>
      <circle cx="60" cy="-35" r="8" fill="url(#iconGradient)"/>
      <circle cx="60" cy="35" r="8" fill="url(#iconGradient)"/>
      <circle cx="-60" cy="35" r="8" fill="url(#iconGradient)"/>
      <circle cx="30" cy="-60" r="8" fill="url(#iconGradient)"/>
      <circle cx="-30" cy="60" r="8" fill="url(#iconGradient)"/>
    </g>
  </g>
  
  <circle cx="100" cy="100" r="15" fill="white" opacity="0.2"/>
  <circle cx="412" cy="100" r="12" fill="white" opacity="0.15"/>
  <circle cx="100" cy="412" r="18" fill="white" opacity="0.1"/>
  <circle cx="412" cy="412" r="10" fill="white" opacity="0.25"/>
  
  <rect x="50" y="50" width="80" height="4" rx="2" fill="white" opacity="0.3"/>
  <rect x="382" y="458" width="60" height="4" rx="2" fill="white" opacity="0.2"/>
</svg>