<svg width="512" height="512" viewBox="0 0 512 512" fill="none" xmlns="http://www.w3.org/2000/svg">
  <!-- Fondo con gradiente -->
  <defs>
    <linearGradient id="grad1" x1="0%" y1="0%" x2="100%" y2="100%">
      <stop offset="0%" style="stop-color:#3b82f6;stop-opacity:1" />
      <stop offset="100%" style="stop-color:#1d4ed8;stop-opacity:1" />
    </linearGradient>
    <linearGradient id="grad2" x1="0%" y1="0%" x2="100%" y2="100%">
      <stop offset="0%" style="stop-color:#10b981;stop-opacity:1" />
      <stop offset="100%" style="stop-color:#059669;stop-opacity:1" />
    </linearGradient>
  </defs>
  
  <!-- Fondo redondeado -->
  <rect width="512" height="512" rx="120" ry="120" fill="url(#grad1)"/>
  
  <!-- Icono de React estilizado -->
  <g transform="translate(128, 128)">
    <!-- Círculo central -->
    <circle cx="128" cy="128" r="20" fill="white"/>
    
    <!-- Órbitas -->
    <ellipse cx="128" cy="128" rx="80" ry="30" fill="none" stroke="white" stroke-width="6" opacity="0.8"/>
    <ellipse cx="128" cy="128" rx="80" ry="30" fill="none" stroke="white" stroke-width="6" opacity="0.8" transform="rotate(60 128 128)"/>
    <ellipse cx="128" cy="128" rx="80" ry="30" fill="none" stroke="white" stroke-width="6" opacity="0.8" transform="rotate(-60 128 128)"/>
    
    <!-- Puntos en las órbitas -->
    <circle cx="208" cy="128" r="8" fill="url(#grad2)"/>
    <circle cx="48" cy="128" r="8" fill="url(#grad2)"/>
    <circle cx="168" cy="59" r="8" fill="url(#grad2)"/>
    <circle cx="88" cy="197" r="8" fill="url(#grad2)"/>
    <circle cx="168" cy="197" r="8" fill="url(#grad2)"/>
    <circle cx="88" cy="59" r="8" fill="url(#grad2)"/>
  </g>
  
  <!-- Elementos decorativos -->
  <rect x="400" y="80" width="60" height="8" rx="4" fill="white" opacity="0.3"/>
  <rect x="400" y="100" width="40" height="8" rx="4" fill="white" opacity="0.2"/>
  <rect x="400" y="120" width="50" height="8" rx="4" fill="white" opacity="0.25"/>
  
  <circle cx="80" cy="400" r="12" fill="white" opacity="0.2"/>
  <circle cx="110" cy="430" r="8" fill="white" opacity="0.15"/>
  <circle cx="50" cy="430" r="6" fill="white" opacity="0.1"/>
</svg>